# xmcd CD database file
#
# Track frame offsets:
#	150
#	9342
#	26607
#	46282
#	59267
#	81489
#	99701
#	115279
#	129132
#	145543
#	162814
#	180742
#	199771
#	208612
#	221941
#
# Disc length: 3106 seconds
#
# Revision: 0
# Processed by: cddbd v1.5.1PL0 Copyright (c) Steve Scherf et al.
# Submitted via: CDex 1.60beta1
#
DISCID=cf0c200f
DTITLE=Louisiana Washboard Five - Doctor Jazz
DYEAR=1998
DGENRE=Jazz
TTITLE0=Ready Hokum
TTITLE1=Doctor Jazz
TTITLE2=Sweet Sue
TTITLE3=Jazz Me Blues
TTITLE4=Red River Blues
TTITLE5=I've Found A New Baby
TTITLE6=King Joe
TTITLE7=Memphis Blues
TTITLE8=Struttin' With Some Barbeque
TTITLE9=Weary Blues
TTITLE10=Clarinet Marmelade
TTITLE11=Love Me Or Leave Me
TTITLE12=Dippermouth Blues
TTITLE13=Apex Blues
TTITLE14=I'm Going Huntin'
EXTD=YEAR: 1998
EXTT0=
EXTT1=
EXTT2=
EXTT3=
EXTT4=
EXTT5=
EXTT6=
EXTT7=
EXTT8=
EXTT9=
EXTT10=
EXTT11=
EXTT12=
EXTT13=
EXTT14=
PLAYORDER=
